<!-- Generated by IcoMoon.io -->
<svg version="1.1" xmlns="http://www.w3.org/2000/svg" width="384" height="448" viewBox="0 0 384 448">
<title></title>
<path d="M160 96v-32h-32v32h32zM192 128v-32h-32v32h32zM160 160v-32h-32v32h32zM192 192v-32h-32v32h32zM367 95c9.25 9.25 17 27.75 17 41v288c0 13.25-10.75 24-24 24h-336c-13.25 0-24-10.75-24-24v-400c0-13.25 10.75-24 24-24h224c13.25 0 31.75 7.75 41 17zM256 34v94h94c-1.5-4.25-3.75-8.5-5.5-10.25l-78.25-78.25c-1.75-1.75-6-4-10.25-5.5zM352 416v-256h-104c-13.25 0-24-10.75-24-24v-104h-32v32h-32v-32h-128v384h320zM195.25 235.75c21.25 71.75 26.75 87.25 26.75 87.25 1.25 4.25 2 8.5 2 13 0 27.75-27 48-64 48s-64-20.25-64-48c0-4.5 0.75-8.75 2-13 0 0 5.25-15.5 30-99v-32h32v32h19.75c7.25 0 13.5 4.75 15.5 11.75zM160 352c17.75 0 32-7.25 32-16s-14.25-16-32-16-32 7.25-32 16 14.25 16 32 16z"></path>
</svg>
